# xmcd
#
# Track frame offsets:
#	150
#	13954
#	29635
#	44966
#	59198
#	73202
#	87398
#	106941
#	121763
#	138866
#	155622
#	170251
#	185653
#	195215
#	213318
#	224135
#
# Disc length: 3165 seconds
#
# Revision: 5
# Processed by: cddbd v1.5.1PL0 Copyright (c) Steve Scherf et al.
# Submitted via: audiograbber 1.83.01
#
DISCID=fc0c5b10
DTITLE=1997-11 Country Radio - 1997-11 Country Radio
DYEAR=1997
DGENRE=Country
TTITLE0=Wynonna - When Love Starts Talkin'
TTITLE1=Diamond Rio - Imagine That
TTITLE2=Neal McCoy - If You Can't Be Good (Be Good At It)
TTITLE3=Brooks and Dunn - He's Got You
TTITLE4=David Lee Murphy - Just Don't Wait Around Til She's Leavin'
TTITLE5=Kevin Sharp - There's Only You
TTITLE6=Sammy Kershaw - Love Of My Life
TTITLE7=James T. Horn - Texas Diary
TTITLE8=Jim Collins - The Next Step
TTITLE9=Blake and Brian - The Wish
TTITLE10=Raybon Bros. Feat. Olivia Newton-John - Falling
TTITLE11=Kippi Brannon - The Greatest Love I've Ever Known
TTITLE12=Matt King - I Wrote The Book
TTITLE13=Ruby Lovett - Look What Love Can Do
TTITLE14=Keith Gattis - Titanic
TTITLE15=Hank Thompson - Gotta' Sell Your Chickens (Before The Die, and The Eggs 
TTITLE15=Before They Hatch)
EXTD=
EXTT0=
EXTT1=
EXTT2=
EXTT3=
EXTT4=
EXTT5=
EXTT6=
EXTT7=
EXTT8=
EXTT9=
EXTT10=
EXTT11=
EXTT12=
EXTT13=
EXTT14=
EXTT15=
PLAYORDER=
